# xmcd CD database file
#
# Track frame offsets:
#	150
#	37997
#	65042
#	104392
#	139065
#	186409
#	225387
#	255255
#
# Disc length: 3632 seconds
#
# Revision: 0
# Processed by: cddbd v1.5.2PL0 Copyright (c) Steve Scherf et al.
# Submitted via: CDex 1.51
#
DISCID=670e2e08
DTITLE=Carla Marciano - Trane's groove
DYEAR=2002
DGENRE=Jazz
TTITLE0=Trane's groove
TTITLE1=As usual
TTITLE2=Prisoner of love
TTITLE3=Easy to love
TTITLE4=Hamlet
TTITLE5=Stars fell on Alabama
TTITLE6=India's mood
TTITLE7=Bye bye Trane
EXTD=YEAR: 2002
EXTT0=
EXTT1=
EXTT2=
EXTT3=
EXTT4=
EXTT5=
EXTT6=
EXTT7=
PLAYORDER=
